<svg width="16.000000" height="16.000000" viewBox="0 0 16 16" fill="none" xmlns="http://www.w3.org/2000/svg" xmlns:xlink="http://www.w3.org/1999/xlink">
	<desc>
			Created with Pixso.
	</desc>
	<defs>
		<clipPath id="clip44_261">
			<rect id="book-open-01" rx="-0.500000" width="15.000000" height="15.000000" transform="translate(0.500000 0.500000)" fill="white" fill-opacity="0"/>
		</clipPath>
	</defs>
	<rect id="book-open-01" rx="-0.500000" width="15.000000" height="15.000000" transform="translate(0.500000 0.500000)" fill="#FFFFFF" fill-opacity="0"/>
	<g clip-path="url(#clip44_261)">
		<path id="Accent" d="M12.26 2C10.77 2 10.02 2 9.45 2.29C8.95 2.54 8.54 2.95 8.29 3.45C8 4.02 8 4.77 8 6.26L8 14L8.06 13.89C8.52 13.2 8.76 12.85 9.06 12.6C9.33 12.38 9.65 12.21 9.98 12.11C10.36 12 10.78 12 11.61 12L12.53 12C13.28 12 13.65 12 13.93 11.85C14.18 11.72 14.39 11.52 14.52 11.27C14.66 10.98 14.66 10.61 14.66 9.86L14.66 4.13C14.66 3.38 14.66 3.01 14.52 2.72C14.39 2.47 14.18 2.27 13.93 2.14C13.65 2 13.28 2 12.53 2L12.26 2Z" stroke="#000000" stroke-opacity="1.000000" stroke-width="1.500000" stroke-linejoin="round"/>
		<path id="Icon" d="M3.73 2C5.22 2 5.97 2 6.54 2.29C7.04 2.54 7.45 2.95 7.7 3.45C8 4.02 8 4.77 8 6.26L8 14L7.93 13.89C7.47 13.2 7.23 12.85 6.93 12.6C6.66 12.38 6.34 12.21 6.01 12.11C5.63 12 5.21 12 4.38 12L3.46 12C2.71 12 2.34 12 2.06 11.85C1.81 11.72 1.6 11.52 1.47 11.27C1.33 10.98 1.33 10.61 1.33 9.86L1.33 4.13C1.33 3.38 1.33 3.01 1.47 2.72C1.6 2.47 1.81 2.27 2.06 2.14C2.34 2 2.71 2 3.46 2L3.73 2Z" stroke="#000000" stroke-opacity="1.000000" stroke-width="1.500000" stroke-linejoin="round"/>
	</g>
</svg>
